<svg width="360" height="362" viewBox="0 0 360 362" fill="none" xmlns="http://www.w3.org/2000/svg">
<g clip-path="url(#clip0_1_3)">
<path fill-rule="evenodd" clip-rule="evenodd" d="M307.546 52.5655C273.709 18.685 228.706 0.0171895 180.756 0C81.951 0 1.53846 80.404 1.50408 179.235C1.48689 210.829 9.74646 241.667 25.4319 268.844L0 361.736L95.0236 336.811C121.203 351.096 150.683 358.616 180.679 358.625H180.756C279.544 358.625 359.966 278.212 360 179.381C360.017 131.483 341.392 86.4547 307.546 52.5741V52.5655ZM180.756 328.354H180.696C153.966 328.346 127.744 321.16 104.865 307.589L99.4242 304.358L43.034 319.149L58.0834 264.168L54.5423 258.53C39.6304 234.809 31.749 207.391 31.7662 179.244C31.8006 97.1036 98.6334 30.2707 180.817 30.2707C220.61 30.2879 258.015 45.8015 286.145 73.9665C314.276 102.123 329.755 139.562 329.738 179.364C329.703 261.513 262.871 328.346 180.756 328.346V328.354Z" fill="#25D366"/>
<path d="M161.639 266.692C161.639 276.7 169.718 285 180 285C190.282 285 198.361 276.7 198.361 266.692C198.361 256.684 190.282 248.384 180 248.384C169.718 248.384 161.639 256.684 161.639 266.692Z" fill="#25D366"/>
<path d="M198.361 201.028C198.361 194.194 201.299 190.044 210.846 183.697C218.436 178.571 239 164.657 239 136.829C239 104.363 212.56 78 180 78C147.44 78 121 104.363 121 136.829C121 146.837 129.324 155.137 139.361 155.137C149.398 155.137 157.722 146.837 157.722 136.829C157.722 124.624 167.759 114.616 180 114.616C192.241 114.616 202.278 124.624 202.278 136.829C202.278 143.176 199.34 147.325 190.282 153.428C182.448 158.798 161.639 172.712 161.639 201.028V206.155C161.639 216.163 169.963 224.462 180 224.462C190.037 224.462 198.361 216.163 198.361 206.155V201.028Z" fill="#25D366"/>
</g>
<defs>
<clipPath id="clip0_1_3">
<rect width="360" height="362" fill="white"/>
</clipPath>
</defs>
</svg>
